<svg width="500" height="500" viewBox="0 0 500 500" fill="none" xmlns="http://www.w3.org/2000/svg">
<g>
<path d="M238.828 270.832H334.043L334.551 212.434H257.363C243.483 212.434 232.396 210.91 224.102 207.863C215.807 204.647 209.798 199.992 206.074 193.898C202.181 187.805 200.234 180.188 200.234 171.047C200.234 160.552 202.181 152.089 206.074 145.656C209.967 139.224 216.146 134.569 224.609 131.691C232.904 128.645 243.652 127.121 256.855 127.121H300.527V428H389.648V58.3125H256.855C234.004 58.3125 213.607 60.4284 195.664 64.6602C177.721 68.7227 162.487 74.9857 149.961 83.4492C137.266 91.9128 127.617 102.577 121.016 115.441C114.414 128.137 111.113 143.117 111.113 160.383C111.113 175.448 114.329 189.582 120.762 202.785C127.194 215.988 137.943 226.737 153.008 235.031C167.904 243.156 188.301 247.388 214.199 247.727L238.828 270.832ZM242.383 428H355.625L325.156 359.445H242.383C230.195 359.445 220.462 357.583 213.184 353.859C205.736 349.966 200.404 344.888 197.188 338.625C193.802 332.193 192.109 325.083 192.109 317.297C192.109 307.818 193.717 299.608 196.934 292.668C199.98 285.728 204.889 280.396 211.66 276.672C218.431 272.779 227.487 270.832 238.828 270.832H313.73L313.223 212.434H223.594L202.773 235.793C178.06 234.777 158.509 238.247 144.121 246.203C129.564 254.159 119.154 264.654 112.891 277.688C106.628 290.721 103.496 304.348 103.496 318.566C103.496 342.772 108.743 363 119.238 379.25C129.564 395.5 145.052 407.688 165.703 415.812C186.354 423.938 211.914 428 242.383 428Z" fill="#57B1FF"/>
</g>
</svg>
